<?xml version="1.0" encoding="utf-8"?>
<!-- Generator: Adobe Illustrator 27.2.0, SVG Export Plug-In . SVG Version: 6.00 Build 0)  -->
<svg version="1.1" id="Layer_1" xmlns="http://www.w3.org/2000/svg" xmlns:xlink="http://www.w3.org/1999/xlink" x="0px" y="0px"
	 viewBox="0 0 1000 1000" style="enable-background:new 0 0 1000 1000;" xml:space="preserve">
<style type="text/css">
	.st0{fill:#FFFFFF;}
</style>
<g>
	<path class="st0" d="M525.3,405.1L51.8,515.2l0.1,0.4l15.3,65.9l12.2,52.3l55,236.4c15.2,65.5,80.7,106.2,146.2,91l0,0l-75.7-325.5
		c-3.8-16.3,6.3-32.5,22.6-36.3c16.3-3.8,32.5,6.3,36.3,22.6l75.7,325.5l118.6-27.6l-75.7-325.5c-3.8-16.3,6.3-32.5,22.6-36.3
		c16.3-3.8,32.5,6.3,36.3,22.6l75.7,325.5l118.6-27.6l-89.6-385.2L525.3,405.1z"/>
	<path class="st0" d="M873,137.2l-8.3-35.5c-10.7-45.8-56.5-74.4-102.4-63.7l-74.1,17.2l20.7,89.1c3.8,16.3-6.3,32.5-22.6,36.3h0
		c-16.3,3.8-32.5-6.3-36.3-22.6l-20.8-89.2l-430.1,100L220,258c3.8,16.3-6.3,32.5-22.6,36.3l0,0c-16.3,3.8-32.5-6.3-36.3-22.6
		l-20.7-89.1L66,199.9C20.1,210.5-8.4,256.3,2.2,302.2l8.3,35.5l27.6,118.6l862.5-200.6L873,137.2z"/>
	<path class="st0" d="M996.8,669.6l-182.1,42.3c-16.3,3.8-32.5-6.3-36.3-22.6c-3.8-16.3,6.3-32.5,22.6-36.3l182.1-42.3l-27.6-118.6
		l-182.1,42.3c-16.3,3.8-32.5-6.3-36.3-22.6c-3.8-16.3,6.3-32.5,22.6-36.3l182.1-42.3l-27.6-118.6l-330.1,76.8l0.1,0.4l20.4,87.9
		l7,30.3l82.5,354.9l118.6-27.6v0l92.9-21.6C971.3,800.5,1012,735.1,996.8,669.6z"/>
</g>
</svg>
